<svg width="50" height="127" viewBox="0 0 50 127" fill="none" xmlns="http://www.w3.org/2000/svg">
<path d="M25.3024 3.24017C25.9873 2.37357 25.84 1.11584 24.9734 0.430943C24.1068 -0.25395 22.8491 -0.106647 22.1642 0.759953L23.7333 2.00006L25.3024 3.24017ZM47.7333 60.0001L49.7274 59.8465L49.7259 59.8269L49.724 59.8074L47.7333 60.0001ZM19.3901 126.47C20.4783 126.66 21.5141 125.931 21.7036 124.843L24.7926 107.11C24.9821 106.022 24.2537 104.986 23.1655 104.797C22.0773 104.607 21.0415 105.336 20.8519 106.424L18.1062 122.187L2.34354 119.441C1.25536 119.251 0.219547 119.98 0.0299921 121.068C-0.159562 122.156 0.56892 123.192 1.6571 123.381L19.3901 126.47ZM23.7333 2.00006L22.1642 0.759953C9.63263 16.6162 4.26891 34.931 4.74679 50.098C5.21967 65.1064 11.5296 77.8007 23.2156 80.9319L23.7333 79.0001L24.2509 77.0682C15.1369 74.6261 9.1969 64.3204 8.74481 49.9721C8.29772 35.7825 13.334 18.3839 25.3024 3.24017L23.7333 2.00006ZM23.7333 79.0001L23.2156 80.9319C28.6524 82.3887 33.1555 82.488 36.8507 81.5366C40.5724 80.5783 43.3503 78.5847 45.3465 76.0834C49.2678 71.1699 50.0814 64.4422 49.7274 59.8465L47.7333 60.0001L45.7392 60.1536C46.0519 64.2135 45.2654 69.7724 42.2201 73.5884C40.7329 75.4518 38.6858 76.9336 35.8533 77.6629C32.9944 78.3991 29.2142 78.3981 24.2509 77.0682L23.7333 79.0001ZM47.7333 60.0001L49.724 59.8074C49.4343 56.8137 47.9365 52.499 44.4247 48.9132C40.8588 45.2721 35.3309 42.5001 27.2333 42.5001V44.5001V46.5001C34.3357 46.5001 38.8078 48.8946 41.5669 51.7119C44.3801 54.5845 45.5323 58.0198 45.7426 60.1927L47.7333 60.0001ZM27.2333 44.5001V42.5001C16.4906 42.5001 6.04762 52.1099 2.41554 66.9625C-1.25195 81.9599 1.84665 102.544 18.0974 125.651L19.7333 124.5L21.3692 123.35C5.61994 100.956 2.96854 81.5402 6.30105 67.9126C9.66897 54.1402 18.976 46.5001 27.2333 46.5001V44.5001Z" fill="#1F2D2A"/>
</svg>
