<svg width="186" height="45" viewBox="0 0 186 45" fill="none" xmlns="http://www.w3.org/2000/svg">
<g clip-path="url(#clip0_44_131)">
<path d="M37 27.6H185.24" stroke="white" stroke-width="0.5" stroke-miterlimit="10" stroke-linecap="round"/>
<path d="M14.87 1C7.21 1 1 7.21 1 14.87V43.76H28.73V14.87C28.73 7.21 22.52 1 14.86 1H14.87Z" stroke="white" stroke-width="2" stroke-miterlimit="10"/>
<path d="M20.2501 17.44C20.6501 11.55 15.1801 12.15 15.1801 12.15C10.7001 12.15 7.08008 15.78 7.08008 20.25C7.08008 25.41 9.78008 28.06 15.1801 28.35L22.0501 28.63" stroke="white" stroke-width="2" stroke-miterlimit="10" stroke-linecap="round"/>
<path d="M10.8198 34.64L15.4098 17.96C15.4898 17.73 15.8098 17.73 15.8998 17.96L21.1298 34.65" stroke="white" stroke-width="2" stroke-miterlimit="10" stroke-linecap="round"/>
<path d="M37 20.64C37.39 20.57 37.66 20.15 37.8 19.35C37.94 18.56 38.01 17.53 38.02 16.26C38.02 14.96 37.94 13.91 37.8 13.1C37.66 12.29 37.39 11.88 37 11.88V11.64H41.84V11.88C41.46 11.88 41.2 12.29 41.06 13.1C40.92 13.91 40.85 14.97 40.84 16.26C40.84 17.53 40.92 18.56 41.06 19.35C41.2 20.14 41.46 20.57 41.84 20.64V20.88H37V20.64ZM43.68 20.33C44.05 20.13 44.32 19.86 44.49 19.5C44.66 19.15 44.85 18.59 45.04 17.85H45.28L44.93 20.87H42.06V20.63C42.77 20.63 43.31 20.52 43.68 20.32V20.33Z" fill="white"/>
<path d="M47.3399 14.14C47.6899 13.91 47.9099 13.59 48.0099 13.19C47.8899 13.37 47.7399 13.51 47.5499 13.61C47.3699 13.71 47.1799 13.76 46.9799 13.76C46.5999 13.76 46.2799 13.63 46.0299 13.38C45.7799 13.13 45.6499 12.81 45.6499 12.43C45.6499 12.08 45.7799 11.77 46.0299 11.53C46.2899 11.28 46.5999 11.16 46.9799 11.16C47.3099 11.16 47.6099 11.28 47.8799 11.53C48.1599 11.78 48.2899 12.15 48.2899 12.66C48.2899 13.26 48.0899 13.75 47.6999 14.15C47.2999 14.55 46.6899 14.75 45.8599 14.76V14.51C46.4899 14.51 46.9899 14.38 47.3399 14.15V14.14Z" fill="white"/>
<path d="M52.4502 15.0501C52.1802 14.7801 51.8402 14.6401 51.4202 14.6401C51.1402 14.6401 50.8802 14.7001 50.6402 14.8101C50.4002 14.9301 50.2102 15.0901 50.0702 15.3101C50.2602 15.1801 50.4702 15.1101 50.7102 15.1101C51.0302 15.1101 51.3002 15.2201 51.5302 15.4501C51.7602 15.6801 51.8702 15.9401 51.8702 16.2601C51.8702 16.6101 51.7502 16.8901 51.5202 17.1001C51.2902 17.3101 51.0202 17.4201 50.7102 17.4201C50.3802 17.4201 50.1102 17.3101 49.8902 17.0901C49.6702 16.8701 49.5602 16.5901 49.5602 16.2601C49.5602 15.8001 49.7002 15.4101 49.9902 15.0701C50.2802 14.7301 50.6402 14.4801 51.0802 14.3101C51.5202 14.1401 51.9802 14.0601 52.4402 14.0601C53.2602 14.0601 53.9502 14.2601 54.5102 14.6501C55.0702 15.0401 55.3502 15.6901 55.3502 16.5801V19.1101C55.3502 19.5401 55.3702 19.8201 55.4002 19.9601C55.4302 20.1001 55.4902 20.1701 55.5602 20.1701C55.6402 20.1701 55.7102 20.0601 55.7602 19.8501C55.8102 19.6401 55.8502 19.3401 55.8702 18.9501H56.1102C56.0902 19.4401 56.0402 19.8101 55.9602 20.0801C55.8802 20.3501 55.7202 20.5501 55.4902 20.7001C55.2602 20.8501 54.9102 20.9201 54.4402 20.9201C53.3802 20.9201 52.8402 20.4301 52.8402 19.4601V17.5101L52.3902 17.6101C52.1202 17.6801 51.9202 17.7701 51.8002 17.8801C51.6802 17.9901 51.5902 18.1401 51.5602 18.3201C51.5302 18.5001 51.5102 18.7601 51.5102 19.1001C51.5102 19.4701 51.5502 19.7401 51.6402 19.9101C51.7302 20.0701 51.8402 20.1501 51.9702 20.1501C52.0902 20.1501 52.1802 20.1001 52.2502 20.0001C52.3202 19.9001 52.3502 19.7201 52.3502 19.4801H52.5902C52.5902 19.9001 52.4502 20.2401 52.1602 20.5101C51.8702 20.7801 51.4302 20.9101 50.8402 20.9101C50.2002 20.9101 49.7302 20.7601 49.4302 20.4701C49.1402 20.1801 48.9902 19.7901 48.9902 19.3101C48.9902 18.9501 49.0902 18.6601 49.3002 18.4401C49.5102 18.2301 49.8002 18.0601 50.1502 17.9401C50.5002 17.8201 51.0602 17.6801 51.8102 17.5001L52.1702 17.4201L52.8302 17.2701V16.1901C52.8302 15.6901 52.7002 15.3001 52.4302 15.0301L52.4502 15.0501Z" fill="white"/>
<path d="M57 14.4V14.16C57.28 14.11 57.64 13.97 58.09 13.72C58.54 13.47 58.96 13.2 59.36 12.89C59.76 12.58 60.02 12.33 60.14 12.13H60.38V14.16H62.27V14.4H60.38V18.91C60.38 19.46 60.45 19.83 60.58 20C60.71 20.18 60.92 20.27 61.2 20.27C61.48 20.27 61.72 20.11 61.93 19.8C62.14 19.49 62.25 19.04 62.28 18.45H62.52C62.52 18.98 62.41 19.43 62.2 19.81C61.99 20.18 61.7 20.47 61.35 20.66C61 20.85 60.62 20.95 60.22 20.95C59.52 20.95 58.96 20.76 58.53 20.38C58.11 20 57.89 19.42 57.89 18.64V14.41H57.01L57 14.4Z" fill="white"/>
<path d="M65.3501 20.52C64.8301 20.24 64.4101 19.84 64.1001 19.3C63.7901 18.76 63.6401 18.12 63.6401 17.38C63.6401 16.76 63.7701 16.19 64.0301 15.69C64.2901 15.19 64.6801 14.8 65.2001 14.51C65.7201 14.22 66.3501 14.08 67.0801 14.08C67.6401 14.08 68.1201 14.17 68.5201 14.35C68.9201 14.53 69.2201 14.77 69.4301 15.06C69.6401 15.35 69.7401 15.65 69.7401 15.97C69.7401 16.43 69.5701 16.82 69.2301 17.15C68.8901 17.48 68.4001 17.65 67.7701 17.65C67.2701 17.65 66.8201 17.6 66.4401 17.51V17.27C66.4401 17.27 66.5101 17.27 66.5701 17.29C66.6301 17.3 66.7001 17.31 66.8101 17.31C67.0701 17.31 67.2601 17.17 67.3601 16.88C67.4701 16.59 67.5201 16.23 67.5201 15.79C67.5201 15.35 67.4701 15.02 67.3801 14.74C67.2901 14.46 67.1301 14.32 66.9001 14.32C66.5601 14.32 66.3601 14.59 66.2801 15.14C66.2001 15.69 66.1601 16.37 66.1601 17.2C66.1601 18.23 66.3201 18.99 66.6401 19.5C66.9601 20 67.3801 20.26 67.9001 20.26C68.3601 20.26 68.7401 20.11 69.0401 19.8C69.3401 19.5 69.5501 19.07 69.6601 18.52H69.9001C69.7301 19.29 69.4101 19.89 68.9301 20.31C68.4501 20.73 67.8301 20.94 67.0601 20.94C66.4401 20.94 65.8701 20.8 65.3501 20.53V20.52Z" fill="white"/>
<path d="M72.0702 16.15C72.0702 14.89 72.0102 13.85 71.9002 13.04C71.7802 12.23 71.5502 11.84 71.1902 11.86V11.62L74.5602 11.16V17.14C74.5602 18.02 74.5702 18.69 74.6002 19.15C74.6302 19.61 74.7002 19.98 74.8002 20.24C74.9102 20.51 75.0702 20.64 75.3002 20.64V20.88H71.1802V20.64C71.4402 20.64 71.6302 20.49 71.7502 20.18C71.8702 19.88 71.9502 19.46 71.9902 18.93C72.0302 18.4 72.0502 17.64 72.0602 16.64V16.14L72.0702 16.15Z" fill="white"/>
<path d="M76.4199 20.64C76.6899 20.64 76.8899 20.54 77.0099 20.35C77.1299 20.16 77.2099 19.86 77.2499 19.45C77.2899 19.04 77.3099 18.43 77.3099 17.61V17.15C77.3099 16.54 77.2899 16.08 77.2499 15.76C77.2099 15.44 77.1299 15.2 76.9999 15.04C76.8699 14.88 76.6899 14.8 76.4299 14.8V14.56L79.7999 14.08V17.61C79.7999 18.45 79.8099 19.07 79.8399 19.46C79.8699 19.86 79.9299 20.15 80.0399 20.34C80.1499 20.53 80.3099 20.63 80.5399 20.63V20.87H76.4199V20.63V20.64ZM77.2999 13.46C77.0399 13.2 76.9099 12.88 76.9099 12.51C76.9099 12.14 77.0399 11.82 77.2999 11.56C77.5599 11.3 77.8799 11.17 78.2499 11.17C78.6199 11.17 78.9399 11.3 79.1999 11.56C79.4599 11.82 79.5899 12.14 79.5899 12.51C79.5899 12.88 79.4599 13.2 79.1999 13.46C78.9399 13.72 78.6199 13.85 78.2499 13.85C77.8799 13.85 77.5599 13.72 77.2999 13.46Z" fill="white"/>
<path d="M83.5201 20.52C83.0001 20.24 82.5801 19.84 82.2701 19.3C81.9601 18.76 81.8101 18.12 81.8101 17.38C81.8101 16.76 81.9401 16.19 82.2001 15.69C82.4601 15.19 82.8501 14.8 83.3701 14.51C83.8901 14.22 84.5201 14.08 85.2501 14.08C85.8101 14.08 86.2901 14.17 86.6901 14.35C87.0901 14.53 87.3901 14.77 87.6001 15.06C87.8101 15.35 87.9101 15.65 87.9101 15.97C87.9101 16.43 87.7401 16.82 87.4001 17.15C87.0601 17.48 86.5701 17.65 85.9401 17.65C85.4401 17.65 84.9901 17.6 84.6101 17.51V17.27C84.6101 17.27 84.6801 17.27 84.7401 17.29C84.8001 17.3 84.8701 17.31 84.9801 17.31C85.2401 17.31 85.4301 17.17 85.5301 16.88C85.6401 16.59 85.6901 16.23 85.6901 15.79C85.6901 15.35 85.6401 15.02 85.5501 14.74C85.4601 14.46 85.3001 14.32 85.0701 14.32C84.7301 14.32 84.5301 14.59 84.4501 15.14C84.3701 15.69 84.3301 16.37 84.3301 17.2C84.3301 18.23 84.4901 18.99 84.8101 19.5C85.1301 20 85.5501 20.26 86.0701 20.26C86.5301 20.26 86.9101 20.11 87.2101 19.8C87.5101 19.5 87.7201 19.07 87.8301 18.52H88.0701C87.9001 19.29 87.5801 19.89 87.1001 20.31C86.6201 20.73 86.0001 20.94 85.2301 20.94C84.6101 20.94 84.0401 20.8 83.5201 20.53V20.52Z" fill="white"/>
<path d="M89.1899 20.64C89.4599 20.64 89.6599 20.54 89.7799 20.35C89.8999 20.16 89.9799 19.86 90.0199 19.45C90.0599 19.04 90.0799 18.43 90.0799 17.61V17.15C90.0799 16.54 90.0599 16.08 90.0199 15.76C89.9799 15.44 89.8999 15.2 89.7699 15.04C89.6399 14.88 89.4599 14.8 89.1999 14.8V14.56L92.5699 14.08V17.61C92.5699 18.45 92.5799 19.07 92.6099 19.46C92.6399 19.86 92.6999 20.15 92.8099 20.34C92.9199 20.53 93.0799 20.63 93.3099 20.63V20.87H89.1899V20.63V20.64ZM93.2999 14.58C93.5999 14.25 93.9599 14.08 94.3699 14.08C94.7199 14.08 95.0199 14.18 95.2699 14.39C95.5099 14.6 95.6299 14.88 95.6299 15.23C95.6299 15.55 95.5299 15.8 95.3399 15.99C95.1399 16.18 94.8799 16.27 94.5599 16.27C94.2399 16.27 93.9899 16.18 93.7899 16C93.5899 15.82 93.4999 15.58 93.4999 15.28C93.4999 15.05 93.5599 14.85 93.6799 14.69C93.7999 14.53 93.9499 14.42 94.1299 14.36C93.8299 14.43 93.5799 14.61 93.3899 14.91C93.1899 15.21 93.0999 15.64 93.0999 16.21V16.45H92.8599V16.13C92.8599 15.44 93.0099 14.93 93.3199 14.6L93.2999 14.58Z" fill="white"/>
<path d="M105.05 20.88L105.11 16.65V15.5C105.09 15.27 105 15.08 104.83 14.95C104.66 14.82 104.45 14.75 104.2 14.75C103.48 14.75 103.12 15.67 103.12 17.51C103.12 19.35 103.43 20.28 104.04 20.28C104.22 20.28 104.35 20.22 104.43 20.09C104.51 19.96 104.56 19.77 104.58 19.51H104.82C104.82 19.93 104.69 20.27 104.44 20.53C104.19 20.79 103.81 20.92 103.29 20.92C102.71 20.92 102.22 20.76 101.81 20.44C101.4 20.12 101.1 19.71 100.89 19.19C100.68 18.67 100.58 18.13 100.58 17.54C100.58 16.91 100.69 16.34 100.91 15.8C101.13 15.27 101.46 14.84 101.89 14.53C102.32 14.21 102.85 14.05 103.47 14.05C103.82 14.05 104.14 14.11 104.42 14.24C104.7 14.37 104.92 14.53 105.08 14.74C105.04 13.85 104.96 13.14 104.83 12.61C104.7 12.08 104.49 11.82 104.21 11.84V11.6L107.6 11.14V17.45C107.6 18.24 107.63 18.84 107.65 19.24C107.67 19.64 107.74 19.97 107.84 20.23C107.94 20.49 108.11 20.62 108.34 20.62V20.86H105.04L105.05 20.88Z" fill="white"/>
<path d="M111.32 20.52C110.8 20.24 110.38 19.84 110.07 19.3C109.76 18.76 109.61 18.12 109.61 17.38C109.61 16.76 109.74 16.19 110 15.69C110.26 15.19 110.65 14.8 111.17 14.51C111.69 14.22 112.32 14.08 113.05 14.08C113.61 14.08 114.09 14.17 114.49 14.35C114.89 14.53 115.19 14.77 115.4 15.06C115.61 15.35 115.71 15.65 115.71 15.97C115.71 16.43 115.54 16.82 115.2 17.15C114.86 17.48 114.37 17.65 113.74 17.65C113.24 17.65 112.79 17.6 112.41 17.51V17.27C112.41 17.27 112.48 17.27 112.54 17.29C112.6 17.3 112.67 17.31 112.78 17.31C113.04 17.31 113.23 17.17 113.33 16.88C113.44 16.59 113.49 16.23 113.49 15.79C113.49 15.35 113.44 15.02 113.35 14.74C113.26 14.46 113.1 14.32 112.87 14.32C112.53 14.32 112.33 14.59 112.25 15.14C112.17 15.69 112.13 16.37 112.13 17.2C112.13 18.23 112.29 18.99 112.61 19.5C112.93 20 113.35 20.26 113.87 20.26C114.33 20.26 114.71 20.11 115.01 19.8C115.31 19.5 115.52 19.07 115.63 18.52H115.87C115.7 19.29 115.38 19.89 114.9 20.31C114.42 20.73 113.8 20.94 113.03 20.94C112.41 20.94 111.84 20.8 111.32 20.53V20.52Z" fill="white"/>
<path d="M124.73 13.15C124.46 14 124.33 14.95 124.33 15.99C124.33 17.38 124.55 18.39 124.99 19.01C125.43 19.63 126.02 19.95 126.77 19.95C127.42 19.95 127.96 19.74 128.39 19.32C128.81 18.9 129.11 18.3 129.28 17.53H129.52C129.29 18.62 128.84 19.46 128.19 20.06C127.54 20.66 126.68 20.95 125.61 20.95C124.78 20.95 124.02 20.77 123.33 20.42C122.64 20.07 122.09 19.54 121.68 18.83C121.27 18.13 121.06 17.27 121.06 16.26C121.06 15.32 121.26 14.5 121.65 13.81C122.05 13.12 122.64 12.58 123.41 12.21C124.18 11.84 125.14 11.64 126.27 11.64H126.3V11.88H126.22C125.49 11.88 125 12.3 124.73 13.15ZM126.54 11.64H127.13C127.61 11.64 127.94 11.62 128.13 11.61C128.32 11.6 128.46 11.57 128.55 11.53C128.64 11.48 128.68 11.4 128.68 11.29C128.68 11.22 128.68 11.17 128.65 11.14H128.9V14.81H128.66C128.55 14.06 128.43 13.5 128.32 13.12C128.2 12.74 128.01 12.44 127.73 12.22C127.45 12.01 127.06 11.89 126.53 11.88V11.64H126.54Z" fill="white"/>
<path d="M134.33 15.0501C134.06 14.7801 133.72 14.6401 133.3 14.6401C133.02 14.6401 132.76 14.7001 132.52 14.8101C132.28 14.9301 132.09 15.0901 131.95 15.3101C132.14 15.1801 132.35 15.1101 132.59 15.1101C132.91 15.1101 133.18 15.2201 133.41 15.4501C133.64 15.6801 133.75 15.9401 133.75 16.2601C133.75 16.6101 133.63 16.8901 133.4 17.1001C133.17 17.3101 132.9 17.4201 132.59 17.4201C132.26 17.4201 131.99 17.3101 131.77 17.0901C131.55 16.8701 131.44 16.5901 131.44 16.2601C131.44 15.8001 131.58 15.4101 131.87 15.0701C132.16 14.7301 132.52 14.4801 132.96 14.3101C133.4 14.1401 133.86 14.0601 134.32 14.0601C135.14 14.0601 135.83 14.2601 136.39 14.6501C136.95 15.0401 137.23 15.6901 137.23 16.5801V19.1101C137.23 19.5401 137.25 19.8201 137.28 19.9601C137.31 20.1001 137.37 20.1701 137.44 20.1701C137.52 20.1701 137.59 20.0601 137.64 19.8501C137.69 19.6401 137.73 19.3401 137.75 18.9501H137.99C137.97 19.4401 137.92 19.8101 137.84 20.0801C137.76 20.3501 137.6 20.5501 137.37 20.7001C137.14 20.8501 136.79 20.9201 136.32 20.9201C135.26 20.9201 134.72 20.4301 134.72 19.4601V17.5101L134.27 17.6101C134 17.6801 133.8 17.7701 133.68 17.8801C133.56 17.9901 133.47 18.1401 133.44 18.3201C133.41 18.5001 133.39 18.7601 133.39 19.1001C133.39 19.4701 133.43 19.7401 133.52 19.9101C133.61 20.0701 133.72 20.1501 133.85 20.1501C133.97 20.1501 134.06 20.1001 134.13 20.0001C134.2 19.9001 134.23 19.7201 134.23 19.4801H134.47C134.47 19.9001 134.33 20.2401 134.04 20.5101C133.75 20.7801 133.31 20.9101 132.72 20.9101C132.08 20.9101 131.61 20.7601 131.31 20.4701C131.02 20.1801 130.87 19.7901 130.87 19.3101C130.87 18.9501 130.97 18.6601 131.18 18.4401C131.39 18.2301 131.68 18.0601 132.03 17.9401C132.38 17.8201 132.94 17.6801 133.69 17.5001L134.05 17.4201L134.71 17.2701V16.1901C134.71 15.6901 134.58 15.3001 134.31 15.0301L134.33 15.0501Z" fill="white"/>
<path d="M139.65 23.6601C139.77 23.3401 139.85 22.8801 139.89 22.2801C139.93 21.6801 139.95 20.7901 139.96 19.5901V19.0901C139.96 17.8301 139.9 16.7901 139.78 15.9801C139.66 15.1701 139.43 14.7801 139.07 14.8001V14.5601L142.44 14.1001V14.7901C142.6 14.5801 142.82 14.4001 143.1 14.2701C143.38 14.1401 143.7 14.0701 144.07 14.0701C144.69 14.0701 145.21 14.2301 145.65 14.5501C146.08 14.8701 146.41 15.2901 146.63 15.8201C146.85 16.3501 146.96 16.9301 146.96 17.5601C146.96 18.1501 146.86 18.7001 146.65 19.2101C146.44 19.7201 146.14 20.1401 145.73 20.4601C145.32 20.7801 144.83 20.9401 144.25 20.9401C143.74 20.9401 143.35 20.8101 143.1 20.5501C142.85 20.2901 142.72 19.9501 142.72 19.5301H142.96C142.96 19.7901 143.02 19.9901 143.1 20.1101C143.18 20.2301 143.32 20.3001 143.51 20.3001C144.13 20.3001 144.43 19.3801 144.43 17.5301C144.43 15.6801 144.07 14.7701 143.35 14.7701C143.11 14.7701 142.9 14.8301 142.73 14.9501C142.56 15.0701 142.46 15.2401 142.44 15.4701V20.1901C142.44 21.2401 142.45 22.0201 142.48 22.5401C142.51 23.0601 142.57 23.4601 142.68 23.7401C142.78 24.0201 142.95 24.1601 143.18 24.1601V24.4001H139.06V24.1601C139.32 24.1601 139.51 24.0001 139.63 23.6801L139.65 23.6601Z" fill="white"/>
<path d="M148.21 14.56C148.82 14.5 149.62 14.38 150.62 14.18L151.33 14.05V18.53C151.33 19 151.34 19.34 151.37 19.55C151.4 19.76 151.45 19.92 151.53 20.02C151.61 20.12 151.75 20.17 151.94 20.17C152.09 20.17 152.22 20.12 152.32 20.01C152.42 19.9 152.47 19.73 152.47 19.5H152.71C152.71 19.93 152.53 20.27 152.16 20.54C151.79 20.81 151.37 20.93 150.89 20.93C150.33 20.93 149.85 20.74 149.45 20.36C149.05 19.98 148.85 19.41 148.85 18.63V16.8C148.85 16.12 148.81 15.62 148.72 15.31C148.63 15 148.47 14.82 148.22 14.77V14.56H148.21ZM152.9 15.86C152.87 15.46 152.81 15.18 152.74 15.01C152.66 14.84 152.55 14.76 152.4 14.76V14.52C153.17 14.45 154.23 14.29 155.56 14.06C155.48 15.12 155.45 15.95 155.45 16.55C155.45 17.84 155.47 18.76 155.5 19.3C155.53 19.85 155.6 20.21 155.7 20.38C155.8 20.55 155.96 20.64 156.18 20.64V20.88H152.95V17.58C152.95 16.83 152.93 16.26 152.9 15.87V15.86Z" fill="white"/>
<path d="M159.12 20.54C158.62 20.27 158.21 19.87 157.9 19.34C157.59 18.8 157.44 18.15 157.44 17.39C157.44 16.4 157.75 15.6 158.37 15C158.99 14.39 159.88 14.09 161.04 14.09C161.88 14.09 162.52 14.28 162.96 14.67C163.4 15.06 163.63 15.6 163.63 16.29C163.63 16.61 163.52 16.88 163.3 17.1C163.08 17.32 162.81 17.44 162.5 17.44C162.19 17.44 161.91 17.33 161.69 17.1C161.47 16.88 161.35 16.61 161.35 16.29C161.35 15.97 161.46 15.7 161.69 15.48C161.91 15.26 162.18 15.15 162.5 15.15C162.79 15.15 163.04 15.24 163.24 15.43C163 14.77 162.45 14.44 161.6 14.44C161.07 14.44 160.68 14.59 160.44 14.88C160.2 15.17 160.06 15.49 160.02 15.84C159.98 16.19 159.96 16.64 159.96 17.21C159.96 18.4 160.09 19.24 160.35 19.74C160.61 20.24 161.04 20.49 161.62 20.49C161.96 20.49 162.26 20.4 162.54 20.23C162.82 20.06 163.04 19.82 163.21 19.52C163.37 19.22 163.46 18.89 163.46 18.53H163.7C163.7 19.03 163.57 19.45 163.31 19.82C163.05 20.18 162.7 20.46 162.25 20.66C161.81 20.86 161.31 20.95 160.77 20.95C160.17 20.95 159.62 20.82 159.12 20.55V20.54Z" fill="white"/>
<path d="M164.96 20.64C165.23 20.64 165.43 20.54 165.55 20.35C165.67 20.16 165.75 19.86 165.79 19.45C165.83 19.04 165.85 18.43 165.85 17.61V17.15C165.85 16.54 165.83 16.08 165.79 15.76C165.75 15.44 165.67 15.2 165.54 15.04C165.41 14.88 165.23 14.8 164.97 14.8V14.56L168.34 14.08V17.61C168.34 18.45 168.35 19.07 168.38 19.46C168.41 19.86 168.47 20.15 168.58 20.34C168.69 20.53 168.85 20.63 169.08 20.63V20.87H164.96V20.63V20.64ZM165.84 13.46C165.58 13.2 165.45 12.88 165.45 12.51C165.45 12.14 165.58 11.82 165.84 11.56C166.1 11.3 166.42 11.17 166.79 11.17C167.16 11.17 167.48 11.3 167.74 11.56C168 11.82 168.13 12.14 168.13 12.51C168.13 12.88 168 13.2 167.74 13.46C167.48 13.72 167.16 13.85 166.79 13.85C166.42 13.85 166.1 13.72 165.84 13.46Z" fill="white"/>
<path d="M170.21 20.64C170.48 20.64 170.68 20.54 170.8 20.35C170.92 20.16 171 19.86 171.04 19.45C171.08 19.04 171.1 18.43 171.1 17.61V17.15C171.1 16.54 171.08 16.08 171.04 15.76C171 15.44 170.92 15.2 170.79 15.04C170.66 14.88 170.48 14.8 170.22 14.8V14.56L173.59 14.08V17.61C173.59 18.45 173.6 19.07 173.63 19.46C173.66 19.86 173.72 20.15 173.83 20.34C173.94 20.53 174.1 20.63 174.33 20.63V20.87H170.21V20.63V20.64ZM175.15 15.49C175.11 15.25 175.05 15.08 174.96 14.99C174.87 14.89 174.74 14.84 174.58 14.84C174.44 14.84 174.32 14.9 174.23 15.02C174.14 15.14 174.09 15.3 174.08 15.52H173.84C173.84 15.1 174.01 14.76 174.34 14.5C174.67 14.24 175.18 14.11 175.86 14.11C176.46 14.11 176.92 14.3 177.25 14.68C177.58 15.06 177.74 15.62 177.73 16.35V17.62C177.72 18.46 177.73 19.08 177.76 19.47C177.79 19.87 177.85 20.16 177.96 20.35C178.07 20.54 178.23 20.64 178.46 20.64V20.88H174.62V20.64C174.81 20.64 174.94 20.54 175.03 20.35C175.12 20.16 175.17 19.86 175.19 19.45C175.21 19.04 175.23 18.43 175.23 17.61V16.55C175.23 16.08 175.21 15.73 175.17 15.49H175.15Z" fill="white"/>
<path d="M181.41 20.52C180.89 20.24 180.47 19.84 180.16 19.3C179.85 18.76 179.7 18.12 179.7 17.38C179.7 16.76 179.83 16.19 180.09 15.69C180.35 15.19 180.74 14.8 181.26 14.51C181.78 14.22 182.41 14.08 183.14 14.08C183.7 14.08 184.18 14.17 184.58 14.35C184.98 14.53 185.28 14.77 185.49 15.06C185.7 15.35 185.8 15.65 185.8 15.97C185.8 16.43 185.63 16.82 185.29 17.15C184.95 17.48 184.46 17.65 183.83 17.65C183.33 17.65 182.88 17.6 182.5 17.51V17.27C182.5 17.27 182.57 17.27 182.63 17.29C182.69 17.3 182.76 17.31 182.87 17.31C183.13 17.31 183.32 17.17 183.42 16.88C183.53 16.59 183.58 16.23 183.58 15.79C183.58 15.35 183.53 15.02 183.44 14.74C183.35 14.46 183.19 14.32 182.96 14.32C182.62 14.32 182.42 14.59 182.34 15.14C182.26 15.69 182.22 16.37 182.22 17.2C182.22 18.23 182.38 18.99 182.7 19.5C183.02 20 183.44 20.26 183.96 20.26C184.42 20.26 184.8 20.11 185.1 19.8C185.4 19.5 185.61 19.07 185.72 18.52H185.96C185.79 19.29 185.47 19.89 184.99 20.31C184.51 20.73 183.89 20.94 183.12 20.94C182.5 20.94 181.93 20.8 181.41 20.53V20.52Z" fill="white"/>
<path d="M37.4998 35.9801C37.4598 35.8501 37.3998 35.7601 37.3198 35.6901C37.2398 35.6301 37.1498 35.6001 37.0298 35.6001V35.4301H39.9498V35.6001C39.7798 35.6001 39.6598 35.6201 39.5898 35.6601C39.5198 35.7001 39.4798 35.7801 39.4798 35.9101C39.4798 36.0201 39.4998 36.1201 39.5398 36.2201L40.6298 39.2201L40.2898 40.2301H39.2198L37.5998 36.2401C37.5998 36.2401 37.5498 36.1101 37.5098 35.9801H37.4998ZM40.5098 35.4301H42.4998V35.6001C42.2798 35.6101 42.1098 35.6701 41.9798 35.7901C41.8498 35.9001 41.7398 36.0501 41.6498 36.2501C41.5598 36.4501 41.4498 36.7501 41.3198 37.1701L41.2298 37.4301L40.7898 38.7701L40.7098 38.4401L40.8398 38.0501C41.0898 37.2901 41.2298 36.8301 41.2698 36.6701C41.3098 36.5101 41.3398 36.3901 41.3398 36.2901C41.3398 36.0401 41.2698 35.8701 41.1398 35.7901C41.0098 35.7001 40.7998 35.6401 40.5098 35.6001V35.4301Z" fill="white"/>
<path d="M43.0498 40.06C43.2398 40.06 43.3798 39.99 43.4698 39.85C43.5598 39.71 43.6098 39.5 43.6398 39.21C43.6698 38.92 43.6798 38.48 43.6798 37.9V37.57C43.6798 37.14 43.6598 36.81 43.6298 36.58C43.5998 36.35 43.5398 36.18 43.4598 36.06C43.3798 35.94 43.2398 35.89 43.0498 35.89V35.72L45.4598 35.38V37.9C45.4598 38.5 45.4598 38.94 45.4898 39.23C45.5098 39.51 45.5598 39.72 45.6298 39.86C45.6998 40 45.8198 40.07 45.9898 40.07V40.24H43.0498V40.07V40.06ZM43.6798 34.93C43.4898 34.74 43.3998 34.52 43.3998 34.25C43.3998 33.98 43.4898 33.76 43.6798 33.57C43.8698 33.38 44.0898 33.29 44.3598 33.29C44.6298 33.29 44.8498 33.38 45.0398 33.57C45.2298 33.76 45.3198 33.98 45.3198 34.25C45.3198 34.52 45.2298 34.74 45.0398 34.93C44.8498 35.12 44.6298 35.21 44.3598 35.21C44.0898 35.21 43.8698 35.12 43.6798 34.93Z" fill="white"/>
<path d="M46.6999 35.6V35.43C46.8999 35.4 47.1599 35.29 47.4799 35.11C47.7999 34.93 48.0999 34.73 48.3799 34.52C48.6599 34.3 48.8499 34.12 48.9399 33.98H49.1099V35.43H50.4599V35.6H49.1099V38.82C49.1099 39.21 49.1599 39.47 49.2499 39.6C49.3399 39.73 49.4999 39.79 49.6999 39.79C49.8999 39.79 50.0699 39.68 50.2199 39.46C50.3699 39.24 50.4499 38.92 50.4699 38.49H50.6399C50.6399 38.87 50.5599 39.19 50.4099 39.46C50.2599 39.73 50.0499 39.93 49.7999 40.06C49.5499 40.2 49.2799 40.27 48.9899 40.27C48.4899 40.27 48.0899 40.13 47.7799 39.86C47.4799 39.59 47.3199 39.18 47.3199 38.62V35.6H46.6899H46.6999Z" fill="white"/>
<path d="M51.3398 40.06C51.5298 40.06 51.6698 39.99 51.7598 39.85C51.8498 39.71 51.8998 39.5 51.9298 39.21C51.9598 38.92 51.9698 38.48 51.9698 37.9V37.57C51.9698 37.14 51.9498 36.81 51.9198 36.58C51.8898 36.35 51.8298 36.18 51.7498 36.06C51.6698 35.94 51.5298 35.89 51.3398 35.89V35.72L53.7498 35.38V37.9C53.7498 38.5 53.7498 38.94 53.7798 39.23C53.7998 39.51 53.8498 39.72 53.9198 39.86C53.9898 40 54.1098 40.07 54.2798 40.07V40.24H51.3398V40.07V40.06ZM54.2698 35.73C54.4898 35.49 54.7398 35.38 55.0298 35.38C55.2798 35.38 55.4998 35.45 55.6698 35.6C55.8398 35.75 55.9298 35.95 55.9298 36.2C55.9298 36.43 55.8598 36.61 55.7198 36.74C55.5798 36.87 55.3898 36.94 55.1598 36.94C54.9298 36.94 54.7498 36.88 54.6098 36.75C54.4698 36.62 54.3998 36.45 54.3998 36.23C54.3998 36.06 54.4398 35.92 54.5298 35.81C54.6198 35.7 54.7198 35.61 54.8498 35.57C54.6398 35.62 54.4598 35.75 54.3198 35.96C54.1798 36.17 54.1098 36.48 54.1098 36.89V37.06H53.9398V36.83C53.9398 36.34 54.0498 35.97 54.2698 35.73Z" fill="white"/>
<path d="M58.9397 36.07C58.7497 35.88 58.4997 35.78 58.1997 35.78C57.9997 35.78 57.8097 35.82 57.6397 35.9C57.4697 35.98 57.3297 36.1 57.2297 36.25C57.3597 36.16 57.5197 36.11 57.6897 36.11C57.9197 36.11 58.1097 36.19 58.2697 36.35C58.4297 36.51 58.5197 36.7 58.5197 36.93C58.5197 37.18 58.4397 37.38 58.2697 37.53C58.0997 37.68 57.9097 37.76 57.6897 37.76C57.4597 37.76 57.2597 37.68 57.1097 37.53C56.9497 37.37 56.8697 37.18 56.8697 36.93C56.8697 36.6 56.9697 36.32 57.1697 36.08C57.3697 35.84 57.6297 35.66 57.9497 35.54C58.2697 35.42 58.5897 35.36 58.9197 35.36C59.5097 35.36 59.9997 35.5 60.3997 35.78C60.7997 36.06 60.9997 36.52 60.9997 37.16V38.97C60.9997 39.28 61.0097 39.48 61.0397 39.58C61.0697 39.68 61.0997 39.73 61.1597 39.73C61.2197 39.73 61.2697 39.65 61.2997 39.5C61.3397 39.35 61.3597 39.13 61.3797 38.86H61.5497C61.5397 39.21 61.4997 39.47 61.4497 39.66C61.3997 39.85 61.2797 40 61.1197 40.1C60.9497 40.2 60.6997 40.26 60.3697 40.26C59.6097 40.26 59.2297 39.91 59.2297 39.22V37.83L58.9097 37.9C58.7197 37.95 58.5797 38.01 58.4797 38.09C58.3897 38.17 58.3297 38.28 58.3097 38.4C58.2897 38.53 58.2797 38.71 58.2797 38.96C58.2797 39.23 58.3097 39.42 58.3697 39.54C58.4297 39.66 58.5097 39.71 58.5997 39.71C58.6897 39.71 58.7497 39.67 58.7997 39.6C58.8497 39.53 58.8697 39.4 58.8697 39.23H59.0397C59.0397 39.53 58.9397 39.77 58.7297 39.96C58.5197 40.15 58.2097 40.25 57.7897 40.25C57.3297 40.25 56.9997 40.15 56.7897 39.94C56.5797 39.73 56.4697 39.46 56.4697 39.11C56.4697 38.85 56.5497 38.64 56.6997 38.49C56.8497 38.34 57.0497 38.22 57.3097 38.14C57.5697 38.06 57.9597 37.95 58.4997 37.83L58.7597 37.77L59.2297 37.66V36.89C59.2297 36.53 59.1397 36.25 58.9497 36.06L58.9397 36.07Z" fill="white"/>
<path d="M62.2998 35.72C62.7298 35.68 63.3098 35.59 64.0198 35.45L64.5298 35.36V38.56C64.5298 38.89 64.5298 39.14 64.5598 39.29C64.5798 39.44 64.6098 39.56 64.6698 39.62C64.7298 39.69 64.8298 39.72 64.9598 39.72C65.0698 39.72 65.1598 39.68 65.2298 39.6C65.2998 39.52 65.3398 39.4 65.3398 39.24H65.5098C65.5098 39.55 65.3798 39.79 65.1198 39.98C64.8598 40.17 64.5598 40.26 64.2098 40.26C63.8098 40.26 63.4698 40.12 63.1798 39.85C62.8898 39.58 62.7498 39.17 62.7498 38.62V37.31C62.7498 36.82 62.7198 36.47 62.6598 36.25C62.5998 36.03 62.4798 35.9 62.2998 35.87V35.72ZM65.6398 36.64C65.6198 36.36 65.5798 36.16 65.5198 36.04C65.4698 35.92 65.3898 35.86 65.2798 35.86V35.69C65.8298 35.64 66.5898 35.53 67.5398 35.36C67.4898 36.12 67.4598 36.71 67.4598 37.14C67.4598 38.06 67.4698 38.71 67.4998 39.1C67.5298 39.49 67.5698 39.75 67.6398 39.87C67.7098 39.99 67.8198 40.06 67.9798 40.06V40.23H65.6698V37.87C65.6698 37.34 65.6598 36.93 65.6298 36.64H65.6398Z" fill="white"/>
<path d="M68.7896 40.0601C69.0996 40.0401 69.3695 39.8901 69.5995 39.6101C69.8295 39.3301 70.1096 38.8701 70.4296 38.2301L70.4495 38.1801L70.5796 38.3801C70.5296 38.5701 70.4995 38.7901 70.4995 39.0301C70.4995 39.3101 70.5596 39.5501 70.6896 39.7401C70.8096 39.9301 70.9896 40.0401 71.2296 40.0701V40.2401H68.7896V40.0701V40.0601ZM69.3296 35.7901C69.2696 35.7201 69.2095 35.6701 69.1395 35.6501C69.0695 35.6301 68.9496 35.6101 68.7996 35.6001V35.4301H71.3195L73.9696 39.7401C74.0196 39.8301 74.0896 39.9001 74.1796 39.9501C74.2696 40.0001 74.3496 40.0401 74.4396 40.0601V40.2301H71.9696L69.5895 36.1901C69.4795 36.0001 69.3896 35.8601 69.3296 35.7901ZM71.8395 35.4301H74.3495V35.6001C74.1595 35.6301 73.9596 35.7301 73.7596 35.9201C73.5596 36.1101 73.3796 36.3401 73.2296 36.6201C73.0796 36.9001 72.9795 37.1601 72.9195 37.4201L72.7896 37.1901C72.8396 37.0201 72.8796 36.8801 72.8996 36.7901C72.9196 36.7001 72.9296 36.5701 72.9296 36.4401C72.9296 36.2001 72.8795 36.0201 72.7795 35.9001C72.6795 35.7801 72.5696 35.7101 72.4296 35.6801C72.2896 35.6501 72.0995 35.6301 71.8495 35.6101V35.4401L71.8395 35.4301Z" fill="white"/>
<path d="M76.5996 40.54C76.8496 40.37 77.0097 40.15 77.0797 39.86C76.9897 39.99 76.8796 40.09 76.7496 40.16C76.6196 40.23 76.4796 40.27 76.3396 40.27C76.0696 40.27 75.8397 40.18 75.6597 40C75.4797 39.82 75.3896 39.59 75.3896 39.32C75.3896 39.07 75.4796 38.85 75.6696 38.67C75.8496 38.49 76.0796 38.41 76.3396 38.41C76.5696 38.41 76.7896 38.5 76.9896 38.67C77.1896 38.85 77.2796 39.12 77.2796 39.48C77.2796 39.91 77.1396 40.26 76.8496 40.54C76.5596 40.82 76.1296 40.97 75.5396 40.98V40.8C75.9896 40.8 76.3396 40.71 76.5896 40.54H76.5996Z" fill="white"/>
<path d="M81.4999 36.85C81.4999 35.95 81.4599 35.21 81.3799 34.63C81.2999 34.05 81.1299 33.77 80.8799 33.79V33.62L83.2899 33.29V37.56C83.2899 38.19 83.2899 38.66 83.3199 39C83.3399 39.33 83.3899 39.59 83.4699 39.78C83.5499 39.97 83.6699 40.07 83.8199 40.07V40.24H80.8799V40.07C81.0699 40.07 81.1999 39.96 81.2899 39.74C81.3799 39.52 81.4299 39.23 81.4599 38.85C81.4899 38.47 81.4999 37.93 81.5099 37.21V36.85H81.4999Z" fill="white"/>
<path d="M87.1096 36.07C86.9196 35.88 86.6697 35.78 86.3697 35.78C86.1697 35.78 85.9796 35.82 85.8096 35.9C85.6396 35.98 85.4997 36.1 85.3997 36.25C85.5297 36.16 85.6896 36.11 85.8596 36.11C86.0896 36.11 86.2797 36.19 86.4397 36.35C86.5997 36.51 86.6897 36.7 86.6897 36.93C86.6897 37.18 86.6097 37.38 86.4397 37.53C86.2697 37.68 86.0796 37.76 85.8596 37.76C85.6296 37.76 85.4296 37.68 85.2796 37.53C85.1196 37.37 85.0396 37.18 85.0396 36.93C85.0396 36.6 85.1396 36.32 85.3396 36.08C85.5396 35.84 85.7997 35.66 86.1197 35.54C86.4397 35.42 86.7596 35.36 87.0896 35.36C87.6796 35.36 88.1696 35.5 88.5696 35.78C88.9696 36.06 89.1696 36.52 89.1696 37.16V38.97C89.1696 39.28 89.1796 39.48 89.2096 39.58C89.2396 39.68 89.2697 39.73 89.3297 39.73C89.3897 39.73 89.4397 39.65 89.4697 39.5C89.5097 39.35 89.5297 39.13 89.5497 38.86H89.7197C89.7097 39.21 89.6697 39.47 89.6197 39.66C89.5697 39.85 89.4496 40 89.2896 40.1C89.1196 40.2 88.8696 40.26 88.5396 40.26C87.7796 40.26 87.3997 39.91 87.3997 39.22V37.83L87.0797 37.9C86.8897 37.95 86.7497 38.01 86.6497 38.09C86.5597 38.17 86.4997 38.28 86.4797 38.4C86.4597 38.53 86.4496 38.71 86.4496 38.96C86.4496 39.23 86.4797 39.42 86.5396 39.54C86.5996 39.66 86.6796 39.71 86.7696 39.71C86.8596 39.71 86.9197 39.67 86.9697 39.6C87.0197 39.53 87.0396 39.4 87.0396 39.23H87.2096C87.2096 39.53 87.1097 39.77 86.8997 39.96C86.6897 40.15 86.3796 40.25 85.9596 40.25C85.4996 40.25 85.1696 40.15 84.9596 39.94C84.7496 39.73 84.6396 39.46 84.6396 39.11C84.6396 38.85 84.7197 38.64 84.8697 38.49C85.0197 38.34 85.2197 38.22 85.4797 38.14C85.7397 38.06 86.1296 37.95 86.6696 37.83L86.9296 37.77L87.3997 37.66V36.89C87.3997 36.53 87.3097 36.25 87.1197 36.06L87.1096 36.07Z" fill="white"/>
<path d="M90.4697 40.06C90.6597 40.06 90.7997 39.99 90.8897 39.85C90.9797 39.71 91.0297 39.5 91.0597 39.21C91.0897 38.92 91.0997 38.48 91.0997 37.9V37.57C91.0997 37.14 91.0797 36.81 91.0497 36.58C91.0197 36.35 90.9597 36.18 90.8797 36.06C90.7997 35.94 90.6597 35.89 90.4697 35.89V35.72L92.8797 35.38V37.9C92.8797 38.5 92.8797 38.94 92.9097 39.23C92.9297 39.51 92.9797 39.72 93.0497 39.86C93.1197 40 93.2397 40.07 93.4097 40.07V40.24H90.4697V40.07V40.06ZM93.4097 35.67C93.6497 35.48 94.0097 35.39 94.4897 35.39C94.9197 35.39 95.2497 35.53 95.4797 35.8C95.7097 36.07 95.8297 36.47 95.8197 36.99V37.9C95.8197 38.5 95.8197 38.94 95.8397 39.23C95.8597 39.51 95.9097 39.72 95.9797 39.86C96.0497 40 96.1697 40.07 96.3397 40.07V40.24H93.5997V40.07C93.7297 40.07 93.8297 40 93.8897 39.86C93.9497 39.72 93.9897 39.51 93.9997 39.22C94.0097 38.93 94.0297 38.49 94.0297 37.91V37.15C94.0297 36.82 94.0197 36.57 93.9897 36.39C93.9597 36.22 93.9197 36.1 93.8597 36.03C93.7997 35.96 93.6997 35.93 93.5797 35.93C93.4797 35.93 93.3997 35.97 93.3297 36.05C93.2597 36.13 93.2297 36.25 93.2197 36.4H93.0497C93.0497 36.1 93.1697 35.86 93.3997 35.67H93.4097ZM96.9397 36.38C96.9097 36.21 96.8697 36.09 96.7997 36.02C96.7397 35.95 96.6497 35.92 96.5297 35.92C96.4297 35.92 96.3497 35.96 96.2797 36.04C96.2097 36.12 96.1797 36.24 96.1697 36.39H95.9997C95.9997 36.09 96.1197 35.85 96.3597 35.66C96.5997 35.47 96.9597 35.38 97.4397 35.38C97.8697 35.38 98.1997 35.52 98.4297 35.79C98.6597 36.06 98.7797 36.46 98.7697 36.98V37.89C98.7597 38.49 98.7697 38.93 98.7897 39.22C98.8097 39.5 98.8597 39.71 98.9297 39.85C98.9997 39.99 99.1197 40.06 99.2897 40.06V40.23H96.5497V40.06C96.6797 40.06 96.7797 39.99 96.8397 39.85C96.8997 39.71 96.9397 39.5 96.9597 39.21C96.9797 38.92 96.9897 38.48 96.9897 37.9V37.14C96.9897 36.81 96.9797 36.56 96.9497 36.38H96.9397Z" fill="white"/>
<path d="M100.38 42.21C100.47 41.98 100.52 41.65 100.55 41.23C100.58 40.81 100.59 40.16 100.6 39.31V38.95C100.6 38.05 100.56 37.31 100.48 36.73C100.4 36.15 100.23 35.87 99.9797 35.89V35.72L102.39 35.39V35.88C102.5 35.73 102.66 35.6 102.86 35.51C103.06 35.42 103.29 35.37 103.55 35.37C103.99 35.37 104.36 35.48 104.67 35.71C104.98 35.94 105.21 36.24 105.37 36.62C105.53 37 105.6 37.41 105.6 37.86C105.6 38.28 105.53 38.67 105.38 39.04C105.23 39.41 105.01 39.7 104.72 39.93C104.43 40.16 104.08 40.27 103.67 40.27C103.3 40.27 103.03 40.18 102.85 39.99C102.67 39.8 102.58 39.56 102.58 39.26H102.75C102.75 39.45 102.79 39.59 102.85 39.68C102.91 39.77 103.01 39.82 103.14 39.82C103.58 39.82 103.8 39.16 103.8 37.84C103.8 36.52 103.54 35.87 103.03 35.87C102.86 35.87 102.71 35.91 102.59 36C102.47 36.09 102.4 36.21 102.38 36.37V39.74C102.38 40.49 102.38 41.05 102.41 41.41C102.43 41.78 102.48 42.07 102.55 42.26C102.62 42.46 102.74 42.56 102.91 42.56V42.73H99.9697V42.56C100.16 42.56 100.29 42.44 100.38 42.21Z" fill="white"/>
<path d="M107.82 39.97C107.45 39.77 107.15 39.48 106.93 39.1C106.71 38.72 106.6 38.26 106.6 37.72C106.6 37.27 106.69 36.87 106.88 36.51C107.07 36.15 107.34 35.87 107.71 35.67C108.08 35.46 108.53 35.36 109.05 35.36C109.45 35.36 109.79 35.42 110.08 35.55C110.37 35.68 110.58 35.85 110.73 36.05C110.88 36.26 110.95 36.47 110.95 36.7C110.95 37.03 110.83 37.31 110.59 37.54C110.35 37.78 110 37.89 109.55 37.89C109.19 37.89 108.87 37.86 108.6 37.79V37.62C108.6 37.62 108.65 37.62 108.69 37.64C108.73 37.64 108.79 37.66 108.86 37.66C109.05 37.66 109.18 37.56 109.26 37.35C109.34 37.14 109.37 36.88 109.37 36.57C109.37 36.26 109.34 36.02 109.27 35.82C109.2 35.62 109.09 35.52 108.93 35.52C108.69 35.52 108.54 35.71 108.48 36.1C108.42 36.49 108.4 36.98 108.4 37.58C108.4 38.31 108.51 38.86 108.74 39.22C108.97 39.58 109.27 39.76 109.64 39.76C109.97 39.76 110.24 39.65 110.45 39.44C110.66 39.23 110.82 38.92 110.9 38.52H111.07C110.95 39.07 110.72 39.5 110.37 39.8C110.03 40.1 109.58 40.25 109.04 40.25C108.6 40.25 108.19 40.15 107.82 39.96V39.97Z" fill="white"/>
<path d="M112.49 39.9501C112.17 39.7401 112.02 39.4501 112.02 39.0601C112.02 38.8801 112.08 38.7301 112.21 38.6001C112.34 38.4701 112.49 38.4101 112.68 38.4101C112.87 38.4101 113.01 38.4701 113.14 38.6001C113.27 38.7301 113.33 38.8901 113.33 39.0601C113.33 39.2301 113.27 39.3901 113.14 39.5301C113.01 39.6601 112.86 39.7201 112.68 39.7201C112.59 39.7201 112.51 39.7001 112.42 39.6701C112.63 39.8801 112.94 39.9901 113.36 39.9901C113.64 39.9901 113.87 39.9301 114.05 39.8101C114.23 39.6901 114.32 39.4901 114.32 39.2201C114.32 39.0601 114.26 38.9201 114.13 38.8001C114.01 38.6801 113.82 38.5301 113.57 38.3501L113.38 38.2201C113.38 38.2201 113.2 38.1001 112.96 37.9301C112.72 37.7701 112.54 37.5901 112.42 37.4001C112.3 37.2101 112.24 37.0101 112.24 36.8001C112.24 36.3501 112.43 36.0001 112.82 35.7701C113.2 35.5301 113.67 35.4201 114.24 35.4201V35.5801C113.97 35.5801 113.83 35.7201 113.83 35.9901C113.83 36.1501 113.89 36.2901 114.02 36.4101C114.15 36.5301 114.34 36.6801 114.61 36.8601C114.77 36.9701 114.89 37.0501 114.97 37.1101C115.28 37.3301 115.51 37.5501 115.68 37.7601C115.85 37.9701 115.93 38.2401 115.93 38.5501C115.93 38.9201 115.82 39.2401 115.6 39.4901C115.38 39.7501 115.1 39.9401 114.76 40.0701C114.42 40.2001 114.05 40.2601 113.66 40.2601C113.21 40.2601 112.83 40.1601 112.52 39.9501H112.49ZM114.4 35.4301H114.9C115.05 35.4301 115.17 35.4101 115.26 35.3801C115.35 35.3501 115.4 35.2801 115.4 35.1901C115.4 35.1401 115.4 35.0901 115.38 35.0601H115.56V36.8401H115.38C115.37 36.4601 115.27 36.1601 115.1 35.9301C114.93 35.7001 114.69 35.5901 114.4 35.5901V35.4301Z" fill="white"/>
<path d="M118.27 40.54C118.52 40.37 118.68 40.15 118.75 39.86C118.66 39.99 118.55 40.09 118.42 40.16C118.29 40.23 118.15 40.27 118.01 40.27C117.74 40.27 117.51 40.18 117.33 40C117.15 39.82 117.06 39.59 117.06 39.32C117.06 39.07 117.15 38.85 117.34 38.67C117.52 38.49 117.75 38.41 118.01 38.41C118.24 38.41 118.46 38.5 118.66 38.67C118.86 38.85 118.95 39.12 118.95 39.48C118.95 39.91 118.81 40.26 118.52 40.54C118.23 40.82 117.8 40.97 117.21 40.98V40.8C117.66 40.8 118.01 40.71 118.26 40.54H118.27Z" fill="white"/>
<path d="M123.79 42.5601C123.38 42.4501 123.07 42.3101 122.86 42.1401C122.65 41.9701 122.55 41.7901 122.55 41.6201C122.55 41.4901 122.62 41.3601 122.76 41.2401C122.9 41.1201 123.12 41.0301 123.4 40.9701C123.68 40.9001 124.02 40.8701 124.41 40.8801V41.0101C124.06 41.0101 123.78 41.0701 123.56 41.1901C123.34 41.3101 123.23 41.4501 123.23 41.6101C123.23 41.7701 123.3 41.9201 123.45 42.0701C123.6 42.2201 123.83 42.3301 124.14 42.4201C124.45 42.5101 124.84 42.5501 125.3 42.5501C125.62 42.5501 125.94 42.5101 126.26 42.4301C126.58 42.3501 126.84 42.2301 127.05 42.0601C127.26 41.8901 127.36 41.6801 127.36 41.4301C127.36 41.2301 127.25 41.0601 127.04 40.9301C126.83 40.8001 126.53 40.7301 126.12 40.7301H124.55C123.74 40.7301 123.19 40.6301 122.92 40.4201C122.65 40.2101 122.51 39.9501 122.51 39.6301C122.51 39.4001 122.61 39.1801 122.82 38.9901C123.02 38.8001 123.31 38.6601 123.68 38.5901L123.79 38.6701C123.72 38.6901 123.66 38.7301 123.63 38.7701C123.6 38.8201 123.58 38.8701 123.58 38.9401C123.58 39.0501 123.63 39.1301 123.74 39.1701C123.85 39.2101 124.04 39.2301 124.31 39.2301H125.89C126.51 39.2301 127.01 39.3401 127.39 39.5901C127.77 39.8401 127.96 40.2501 127.96 40.8301C127.96 41.2601 127.83 41.6101 127.58 41.8901C127.32 42.1701 126.99 42.3801 126.58 42.5101C126.17 42.6401 125.73 42.7101 125.25 42.7101C124.68 42.7101 124.18 42.6501 123.77 42.5401L123.79 42.5601ZM123.29 35.8401C123.67 35.5401 124.2 35.3801 124.89 35.3601V35.5101C124.7 35.5601 124.58 35.7201 124.51 35.9901C124.44 36.2601 124.41 36.6001 124.41 37.0201C124.41 37.4401 124.44 37.8001 124.51 38.0701C124.58 38.3401 124.71 38.4901 124.89 38.5301V38.6901C124.2 38.6701 123.67 38.5101 123.29 38.2101C122.91 37.9101 122.72 37.5101 122.72 37.0201C122.72 36.5301 122.91 36.1301 123.29 35.8401ZM125.06 38.5401C125.25 38.5001 125.38 38.3501 125.45 38.0801C125.52 37.8101 125.55 37.4601 125.55 37.0301C125.55 36.6001 125.51 36.2701 125.45 36.0001C125.38 35.7301 125.25 35.5701 125.06 35.5201V35.3701C125.45 35.3701 125.81 35.4401 126.13 35.5601C126.02 35.3701 125.96 35.1501 125.96 34.8901C125.96 34.6701 126.01 34.4601 126.12 34.2601C126.22 34.0601 126.37 33.9001 126.55 33.7701C126.73 33.6401 126.94 33.5801 127.17 33.5801C127.38 33.5801 127.57 33.6601 127.72 33.8101C127.87 33.9601 127.95 34.1401 127.95 34.3501C127.95 34.5601 127.87 34.7501 127.72 34.8901C127.57 35.0401 127.38 35.1201 127.17 35.1201C126.96 35.1201 126.78 35.0401 126.63 34.8901C126.48 34.7401 126.4 34.5601 126.4 34.3501C126.4 34.2301 126.43 34.1201 126.49 34.0201C126.38 34.1101 126.29 34.2201 126.22 34.3701C126.15 34.5101 126.12 34.6801 126.12 34.8501C126.12 35.2401 126.25 35.5401 126.51 35.7301C126.99 36.0401 127.23 36.4701 127.23 37.0201C127.23 37.5101 127.04 37.9101 126.66 38.2101C126.28 38.5101 125.75 38.6701 125.06 38.6901V38.5301V38.5401Z" fill="white"/>
<path d="M130.93 36.07C130.74 35.88 130.49 35.78 130.19 35.78C129.99 35.78 129.8 35.82 129.63 35.9C129.46 35.98 129.32 36.1 129.22 36.25C129.35 36.16 129.51 36.11 129.68 36.11C129.91 36.11 130.1 36.19 130.26 36.35C130.42 36.51 130.51 36.7 130.51 36.93C130.51 37.18 130.43 37.38 130.26 37.53C130.09 37.68 129.9 37.76 129.68 37.76C129.45 37.76 129.25 37.68 129.1 37.53C128.94 37.37 128.86 37.18 128.86 36.93C128.86 36.6 128.96 36.32 129.16 36.08C129.36 35.84 129.62 35.66 129.94 35.54C130.26 35.42 130.58 35.36 130.91 35.36C131.5 35.36 131.99 35.5 132.39 35.78C132.79 36.06 132.99 36.52 132.99 37.16V38.97C132.99 39.28 133 39.48 133.03 39.58C133.06 39.68 133.09 39.73 133.15 39.73C133.21 39.73 133.26 39.65 133.29 39.5C133.33 39.35 133.35 39.13 133.37 38.86H133.54C133.53 39.21 133.49 39.47 133.44 39.66C133.39 39.85 133.27 40 133.11 40.1C132.94 40.2 132.69 40.26 132.36 40.26C131.6 40.26 131.22 39.91 131.22 39.22V37.83L130.9 37.9C130.71 37.95 130.57 38.01 130.47 38.09C130.38 38.17 130.32 38.28 130.3 38.4C130.28 38.53 130.27 38.71 130.27 38.96C130.27 39.23 130.3 39.42 130.36 39.54C130.42 39.66 130.5 39.71 130.59 39.71C130.68 39.71 130.74 39.67 130.79 39.6C130.84 39.53 130.86 39.4 130.86 39.23H131.03C131.03 39.53 130.93 39.77 130.72 39.96C130.51 40.15 130.2 40.25 129.78 40.25C129.32 40.25 128.99 40.15 128.78 39.94C128.57 39.73 128.46 39.46 128.46 39.11C128.46 38.85 128.54 38.64 128.69 38.49C128.84 38.34 129.04 38.22 129.3 38.14C129.56 38.06 129.95 37.95 130.49 37.83L130.75 37.77L131.22 37.66V36.89C131.22 36.53 131.13 36.25 130.94 36.06L130.93 36.07Z" fill="white"/>
<path d="M134.94 36.85C134.94 35.95 134.9 35.21 134.82 34.63C134.74 34.05 134.57 33.77 134.32 33.79V33.62L136.73 33.29V37.56C136.73 38.19 136.73 38.66 136.76 39C136.78 39.33 136.83 39.59 136.91 39.78C136.99 39.97 137.11 40.07 137.26 40.07V40.24H134.32V40.07C134.51 40.07 134.64 39.96 134.73 39.74C134.82 39.52 134.87 39.23 134.9 38.85C134.93 38.47 134.94 37.93 134.95 37.21V36.85H134.94Z" fill="white"/>
<path d="M139.37 39.97C139 39.77 138.7 39.48 138.48 39.1C138.26 38.72 138.15 38.26 138.15 37.72C138.15 37.27 138.24 36.87 138.43 36.51C138.62 36.15 138.89 35.87 139.26 35.67C139.63 35.46 140.08 35.36 140.6 35.36C141 35.36 141.34 35.42 141.63 35.55C141.92 35.68 142.13 35.85 142.28 36.05C142.43 36.26 142.5 36.47 142.5 36.7C142.5 37.03 142.38 37.31 142.14 37.54C141.9 37.78 141.55 37.89 141.1 37.89C140.74 37.89 140.42 37.86 140.15 37.79V37.62C140.15 37.62 140.2 37.62 140.24 37.64C140.28 37.64 140.34 37.66 140.41 37.66C140.6 37.66 140.73 37.56 140.81 37.35C140.89 37.14 140.92 36.88 140.92 36.57C140.92 36.26 140.89 36.02 140.82 35.82C140.75 35.62 140.64 35.52 140.48 35.52C140.24 35.52 140.09 35.71 140.03 36.1C139.97 36.49 139.95 36.98 139.95 37.58C139.95 38.31 140.06 38.86 140.29 39.22C140.52 39.58 140.82 39.76 141.19 39.76C141.52 39.76 141.79 39.65 142 39.44C142.21 39.23 142.37 38.92 142.45 38.52H142.62C142.5 39.07 142.27 39.5 141.92 39.8C141.58 40.1 141.13 40.25 140.59 40.25C140.15 40.25 139.74 40.15 139.37 39.96V39.97Z" fill="white"/>
<path d="M143.42 35.6V35.43C143.62 35.4 143.88 35.29 144.2 35.11C144.52 34.93 144.82 34.73 145.1 34.52C145.38 34.3 145.57 34.12 145.66 33.98H145.83V35.43H147.18V35.6H145.83V38.82C145.83 39.21 145.88 39.47 145.97 39.6C146.06 39.73 146.22 39.79 146.42 39.79C146.62 39.79 146.79 39.68 146.94 39.46C147.09 39.24 147.17 38.92 147.19 38.49H147.36C147.36 38.87 147.28 39.19 147.13 39.46C146.98 39.73 146.77 39.93 146.52 40.06C146.27 40.2 146 40.27 145.71 40.27C145.21 40.27 144.81 40.13 144.5 39.86C144.2 39.59 144.04 39.18 144.04 38.62V35.6H143.41H143.42Z" fill="white"/>
<path d="M148.58 39.9501C148.26 39.7401 148.11 39.4501 148.11 39.0601C148.11 38.8801 148.17 38.7301 148.3 38.6001C148.43 38.4701 148.58 38.4101 148.77 38.4101C148.96 38.4101 149.1 38.4701 149.23 38.6001C149.36 38.7301 149.42 38.8901 149.42 39.0601C149.42 39.2301 149.36 39.3901 149.23 39.5301C149.1 39.6601 148.95 39.7201 148.77 39.7201C148.68 39.7201 148.6 39.7001 148.51 39.6701C148.72 39.8801 149.03 39.9901 149.45 39.9901C149.73 39.9901 149.96 39.9301 150.14 39.8101C150.32 39.6901 150.41 39.4901 150.41 39.2201C150.41 39.0601 150.35 38.9201 150.22 38.8001C150.1 38.6801 149.91 38.5301 149.66 38.3501L149.47 38.2201C149.47 38.2201 149.29 38.1001 149.05 37.9301C148.81 37.7701 148.63 37.5901 148.51 37.4001C148.39 37.2101 148.33 37.0101 148.33 36.8001C148.33 36.3501 148.52 36.0001 148.91 35.7701C149.29 35.5301 149.76 35.4201 150.33 35.4201V35.5801C150.06 35.5801 149.92 35.7201 149.92 35.9901C149.92 36.1501 149.98 36.2901 150.11 36.4101C150.24 36.5301 150.43 36.6801 150.7 36.8601C150.86 36.9701 150.98 37.0501 151.06 37.1101C151.37 37.3301 151.6 37.5501 151.77 37.7601C151.94 37.9701 152.02 38.2401 152.02 38.5501C152.02 38.9201 151.91 39.2401 151.69 39.4901C151.47 39.7501 151.19 39.9401 150.85 40.0701C150.51 40.2001 150.14 40.2601 149.75 40.2601C149.3 40.2601 148.92 40.1601 148.61 39.9501H148.58ZM150.49 35.4301H150.99C151.14 35.4301 151.26 35.4101 151.35 35.3801C151.44 35.3501 151.49 35.2801 151.49 35.1901C151.49 35.1401 151.49 35.0901 151.47 35.0601H151.65V36.8401H151.47C151.46 36.4601 151.36 36.1601 151.19 35.9301C151.02 35.7001 150.78 35.5901 150.49 35.5901V35.4301Z" fill="white"/>
</g>
<defs>
<clipPath id="clip0_44_131">
<rect width="185.96" height="44.75" fill="white"/>
</clipPath>
</defs>
</svg>
